<?xml version="1.0" encoding="UTF-8" standalone="no"?>
<!DOCTYPE svg PUBLIC "-//W3C//DTD SVG 1.1//EN" "http://www.w3.org/Graphics/SVG/1.1/DTD/svg11.dtd">
<svg width="100%" height="100%" viewBox="0 0 1513 613" version="1.1" xmlns="http://www.w3.org/2000/svg" xmlns:xlink="http://www.w3.org/1999/xlink" xml:space="preserve" xmlns:serif="http://www.serif.com/" style="fill-rule:evenodd;clip-rule:evenodd;stroke-linejoin:round;stroke-miterlimit:2;">
    <g transform="matrix(4.16667,0,0,4.16667,0,0)">
        <path d="M326.579,94.15L13.039,94.15L13.039,99.409L317.866,105.217L326.579,94.15Z" style="fill:rgb(216,25,103);fill-rule:nonzero;"/>
        <path d="M325.153,52.145L340.521,52.145C335.603,67.41 320.256,78.167 304.254,78.167C295.525,78.167 286.632,74.847 279.809,69.315L279.809,64.787L275.138,64.787C268.929,57.595 265.589,48.354 265.589,38.765C265.589,17.865 282.514,0.1 303.741,0.1C312.409,0.1 320.769,3.01 326.834,9.28L326.834,1.76L338.533,1.76L338.533,25.59L324.948,25.59C320.769,18.48 312.409,14.197 304.356,14.197C290.259,14.197 279.912,24.873 279.912,38.867C279.912,52.247 290.669,63.435 304.151,63.435C312.716,63.435 320.564,59.357 325.153,52.145Z" style="fill:rgb(216,25,103);fill-rule:nonzero;"/>
        <path d="M248.665,44.092L239.26,18.48L239.157,18.48L229.65,44.092L248.665,44.092ZM279.809,69.315L279.809,76.712L248.357,76.712L248.357,66.262L256.614,66.262L252.23,55.075L225.983,55.075L221.7,66.262L229.753,66.262L229.753,76.712L200.78,76.712L200.78,64.787L207.275,64.787L229.015,13.993L214.959,13.993L214.959,2.068L245.735,2.068L271.88,64.787L275.138,64.787C275.691,65.443 276.285,66.057 276.879,66.672C277.801,67.594 278.785,68.475 279.809,69.315Z" style="fill:rgb(216,25,103);fill-rule:nonzero;"/>
        <path d="M279.809,64.787L279.809,69.315C278.785,68.475 277.801,67.594 276.879,66.672C276.285,66.057 275.691,65.443 275.138,64.787L279.809,64.787Z" style="fill:rgb(216,25,103);fill-rule:nonzero;"/>
        <path d="M213.443,2.068L213.443,25.59L202.153,25.59L202.153,14.73L191.191,14.73L191.191,64.787L199.325,64.787L199.325,76.712L168.816,76.712L168.816,64.787L176.971,64.787L176.971,14.73L165.988,14.73L165.988,25.59L156.153,25.59L156.153,2.068L213.443,2.068Z" style="fill:rgb(216,25,103);fill-rule:nonzero;"/>
        <path d="M141.114,52.145L156.481,52.145C151.563,67.41 136.196,78.167 120.214,78.167C110.174,78.167 99.929,73.782 92.819,66.672C85.504,59.255 81.529,49.215 81.529,38.765C81.529,17.865 98.474,0.1 119.681,0.1C128.369,0.1 136.729,3.01 142.794,9.28L142.794,2.006L154.493,2.006L154.493,25.59L140.909,25.59C136.729,18.48 128.369,14.197 120.316,14.197C106.199,14.197 95.851,24.873 95.851,38.867C95.851,52.247 106.629,63.435 120.111,63.435C128.675,63.435 136.524,59.357 141.114,52.145Z" style="fill:rgb(216,25,103);fill-rule:nonzero;"/>
        <path d="M86.262,64.787L86.262,76.712L58.744,76.712L58.744,64.787L65.444,64.787L65.444,13.993L60.199,13.993L60.199,2.068L86.262,2.068L86.262,13.993L79.664,13.993L79.664,64.787L86.262,64.787Z" style="fill:rgb(216,25,103);fill-rule:nonzero;"/>
        <path d="M58.744,2.068L58.744,25.59L47.454,25.59L47.454,14.73L36.471,14.73L36.471,64.787L44.626,64.787L44.626,76.712L14.117,76.712L14.117,64.787L22.272,64.787L22.272,14.73L11.289,14.73L11.289,25.59L0,25.59L0,2.068L58.744,2.068Z" style="fill:rgb(216,25,103);fill-rule:nonzero;"/>
        <path d="M353.628,2.786C348.959,2.786 345.161,6.584 345.161,11.252C345.161,15.921 348.959,19.719 353.628,19.719C358.296,19.719 362.094,15.921 362.094,11.252C362.094,6.584 358.296,2.786 353.628,2.786ZM353.628,20.187C348.701,20.187 344.693,16.179 344.693,11.252C344.693,6.326 348.701,2.318 353.628,2.318C358.554,2.318 362.562,6.326 362.562,11.252C362.562,16.179 358.554,20.187 353.628,20.187Z" style="fill:rgb(216,25,103);fill-rule:nonzero;"/>
        <path d="M353.628,3.104C349.134,3.104 345.479,6.759 345.479,11.252C345.479,15.745 349.134,19.401 353.628,19.401C358.121,19.401 361.776,15.745 361.776,11.252C361.776,6.759 358.121,3.104 353.628,3.104ZM353.628,20.504C348.526,20.504 344.375,16.354 344.375,11.252C344.375,6.151 348.526,2 353.628,2C358.729,2 362.88,6.151 362.88,11.252C362.88,16.354 358.729,20.504 353.628,20.504Z" style="fill:rgb(216,25,103);fill-rule:nonzero;"/>
        <path d="M351.791,7.527L351.791,11.201L353.793,11.201C355.299,11.201 356.248,10.704 356.248,9.349C356.248,8.069 355.314,7.527 353.793,7.527L351.791,7.527ZM356.188,16.442L353.974,12.843L351.791,12.843L351.791,16.442L349.999,16.442L349.999,5.901L354.019,5.901C356.474,5.901 358.04,7.136 358.04,9.334C358.04,10.9 357.242,12.03 355.887,12.542L358.311,16.442L356.188,16.442Z" style="fill:rgb(216,25,103);fill-rule:nonzero;"/>
        <path d="M95.74,147L95.74,121.753L98.676,121.753L98.676,144.341L109.815,144.341L109.815,147L95.74,147Z" style="fill:rgb(216,25,103);fill-rule:nonzero;"/>
        <path d="M138.781,147L124.707,147L124.707,121.753L138.781,121.753L138.781,124.36L127.643,124.36L127.643,132.494L138.108,132.494L138.108,135.084L127.643,135.084L127.643,144.375L138.781,144.375L138.781,147Z" style="fill:rgb(216,25,103);fill-rule:nonzero;"/>
        <path d="M166.798,136.328L163.862,128.505C163.482,127.515 163.091,126.3 162.688,124.861C162.435,125.966 162.072,127.181 161.6,128.505L158.63,136.328L166.798,136.328ZM170.856,147L167.713,138.97L157.594,138.97L154.485,147L151.515,147L161.497,121.649L163.966,121.649L173.896,147L170.856,147Z" style="fill:rgb(216,25,103);fill-rule:nonzero;"/>
        <path d="M190.913,133.979L194.937,133.979C197.008,133.979 198.528,133.569 199.495,132.743C200.462,131.922 200.945,130.688 200.945,129.04C200.945,127.371 200.454,126.168 199.47,125.431C198.486,124.694 196.905,124.326 194.73,124.326L190.913,124.326L190.913,133.979ZM190.913,136.5L190.913,147L187.977,147L187.977,121.753L194.902,121.753C197.998,121.753 200.287,122.346 201.767,123.531C203.246,124.717 203.985,126.502 203.985,128.885C203.985,132.223 202.292,134.48 198.908,135.654L205.763,147L202.292,147L196.179,136.5L190.913,136.5Z" style="fill:rgb(216,25,103);fill-rule:nonzero;"/>
        <path d="M240.171,147L236.821,147L223.023,125.811L222.885,125.811C223.069,128.298 223.161,130.578 223.161,132.649L223.161,147L220.45,147L220.45,121.753L223.765,121.753L237.529,142.855L237.667,142.855C237.644,142.545 237.592,141.547 237.511,139.858C237.431,138.174 237.402,136.967 237.425,136.241L237.425,121.753L240.171,121.753L240.171,147Z" style="fill:rgb(216,25,103);fill-rule:nonzero;"/>
    </g>
</svg>
